# Blender v2.92.0 OBJ File: 'sign.blend'
# www.blender.org
mtllib sign.mtl
o Cube.001
v 0.050000 3.000000 -0.160000
v 0.050000 -0.000000 -0.160000
v 0.050000 3.000000 0.160000
v 0.050000 -0.000000 0.160000
v -0.050000 3.000000 -0.160000
v -0.050000 -0.000000 -0.160000
v -0.050000 3.000000 0.160000
v -0.050000 -0.000000 0.160000
v 0.050000 4.200000 -0.800000
v 0.050000 3.000000 -0.800000
v 0.050000 4.200000 0.800000
v 0.050000 3.000000 0.800000
v -0.050000 4.200000 -0.800000
v -0.050000 3.000000 -0.800000
v -0.050000 4.200000 0.800000
v -0.050000 3.000000 0.800000
v 0.050000 3.600000 1.200000
v -0.050000 3.600000 1.200000
v 0.050000 3.600000 -1.200000
v -0.050000 3.600000 -1.200000
vt 0.772727 0.681818
vt 0.727273 0.454545
vt 0.772727 0.454545
vt 0.454545 0.568182
vt 0.227273 0.000000
vt 0.454545 0.000000
vt 1.000000 0.568182
vt 0.954545 0.000000
vt 1.000000 0.000000
vt 0.727273 0.681818
vt 0.681818 0.454545
vt 0.727273 0.454545
vt 0.954545 0.568182
vt 0.909091 0.000000
vt 0.954545 0.000000
vt 0.227273 0.568182
vt 0.000000 0.000000
vt 0.227273 0.000000
vt 0.727273 0.681818
vt 0.227273 0.568182
vt 0.954545 0.568182
vt 0.681818 0.681818
vt 0.909091 0.568182
vt 0.000000 0.568182
vt 0.454545 0.568182
vt 0.227273 0.795454
vt 0.227273 0.568182
vt 0.909091 0.113636
vt 0.681818 0.227273
vt 0.681818 0.113636
vt 0.681818 0.625000
vt 0.568182 0.681818
vt 0.454545 0.625000
vt 0.909091 0.227273
vt 0.681818 0.454545
vt 0.681818 0.227273
vt 0.681818 0.284091
vt 0.568182 0.340909
vt 0.454545 0.284091
vt 0.227273 0.681818
vt 0.000000 0.795454
vt 0.000000 0.681818
vt 0.454545 0.795454
vt 0.681818 0.000000
vt 0.909091 0.000000
vt 0.909091 0.227273
vt 0.454545 0.397727
vt 0.568182 0.340909
vt 0.681818 0.397727
vt 0.909091 0.454545
vt 0.454545 0.056818
vt 0.568182 0.000000
vt 0.681818 0.056818
vt 0.000000 0.568182
vt 0.227273 0.568182
vt 0.227273 0.795454
vn 0.0000 1.0000 0.0000
vn 0.0000 0.0000 1.0000
vn -1.0000 0.0000 0.0000
vn 0.0000 -1.0000 0.0000
vn 1.0000 0.0000 0.0000
vn 0.0000 0.0000 -1.0000
vn 0.0000 0.5547 0.8321
vn 0.0000 0.5547 -0.8321
vn 0.0000 -0.5547 0.8321
vn 0.0000 -0.5547 -0.8321
usemtl Material.001
s off
f 5/1/1 3/2/1 1/3/1
f 3/4/2 8/5/2 4/6/2
f 7/7/3 6/8/3 8/9/3
f 2/10/4 8/11/4 6/12/4
f 1/13/5 4/14/5 2/15/5
f 5/16/6 2/17/6 6/18/6
f 5/1/1 7/19/1 3/2/1
f 3/4/2 7/20/2 8/5/2
f 7/7/3 5/21/3 6/8/3
f 2/10/4 4/22/4 8/11/4
f 1/13/5 3/23/5 4/14/5
f 5/16/6 1/24/6 2/17/6
f 13/25/1 11/26/1 9/27/1
f 17/28/7 15/29/7 18/30/7
f 13/31/3 20/32/3 14/33/3
f 10/34/4 16/35/4 14/36/4
f 11/37/5 17/38/5 12/39/5
f 20/40/8 9/41/8 19/42/8
f 13/25/1 15/43/1 11/26/1
f 16/44/9 12/45/9 17/28/9
f 17/28/7 11/46/7 15/29/7
f 18/30/9 16/44/9 17/28/9
f 14/33/3 16/47/3 13/31/3
f 16/47/3 18/48/3 15/49/3
f 13/31/3 16/47/3 15/49/3
f 10/34/4 12/50/4 16/35/4
f 12/39/5 10/51/5 11/37/5
f 10/51/5 19/52/5 9/53/5
f 11/37/5 10/51/5 9/53/5
f 10/54/10 14/55/10 20/40/10
f 20/40/8 13/56/8 9/41/8
f 19/42/10 10/54/10 20/40/10
